<?xml version="1.0" encoding="utf-8"?>
<!-- Generator: Adobe Illustrator 19.0.0, SVG Export Plug-In . SVG Version: 6.00 Build 0)  -->
<svg version="1.1" id="Ñëîé_1" xmlns="http://www.w3.org/2000/svg" xmlns:xlink="http://www.w3.org/1999/xlink" x="0px" y="0px"
	 viewBox="0 0 500 500" style="enable-background:new 0 0 500 500;" xml:space="preserve">
<style type="text/css">
	.st0{fill:#5F68C3;}
</style>
<g id="_x23_5f68c3ff">
	<path id="path5" class="st0" d="M218.5,170.5c8-3.7,16.7-5.6,25.4-6.3c4.1,0,8.1,0.1,12.2,0c13.2,1,26.5,4.9,37,13.1
		c4.1,3.4,7.9,7.3,10.3,12.1c-15.3-3.3-30.9-5.9-46.6-6.3c-1.8-0.1-4,1.1-4,3.1c0,17.7,0,35.3,0,53c-1.8,0.1-3.5,0-5.3,0.1
		c0-17.8,0-35.6,0.1-53.4c-0.2-1.9-2.4-2.9-4.1-2.7c-15.7,0.5-31.4,2.9-46.7,6.5c1.5-3,3.5-5.8,5.9-8.1
		C207.1,176.6,212.6,173.1,218.5,170.5z"/>
	<path id="path7" class="st0" d="M194.5,195.3c13.3-2.6,26.8-4.5,40.4-5.2c2.1-0.1,4.5,1,5.1,3.2c0.5,3.2-0.1,6.4-0.7,9.6
		c-2.4,11.5-4.7,23-7.1,34.5c-9.3-2.1-18.4-5.9-25.8-11.9c-4.2-3.5-7.9-7.7-10.2-12.7C193.7,207.3,193,201,194.5,195.3z"/>
	<path id="path9" class="st0" d="M263.3,190.4c1.2-0.5,2.6-0.3,3.9-0.3c12.5,0.8,25,2.6,37.4,4.8c0.4,0.1,1.2,0.1,1.3,0.7
		c1.5,5.9,0.6,12.3-2.2,17.7c-2.8,5.5-7.2,10.1-12.2,13.7c-4.9,3.4-10.3,6.1-15.9,8c-2.4,0.9-4.9,1.4-7.3,2.2
		c-1.9-9.7-4-19.4-5.9-29c-0.9-4.8-2.4-9.5-1.9-14.4C260.4,192.2,261.8,190.9,263.3,190.4z"/>
	<path id="path11" class="st0" d="M175.1,258.5c12.1-0.2,24.1,0,36.2-0.1c0,3.6,0.1,7.3,0,10.9c-3.5,0-7,0-10.5,0
		c-0.1,8.8,0,17.7,0,26.5c-5.1,0-10.1,0-15.2,0c0.2-8.9,0-17.7,0.1-26.6c-3.5,0.2-7.1,0-10.6,0.1
		C175.2,265.7,175.2,262.1,175.1,258.5z"/>
	<path id="path13" class="st0" d="M221.6,259.1c0.1-0.9,1.2-0.7,1.8-0.7c4.8,0.1,9.5-0.1,14.3,0.1c4.8,12.4,9.6,24.9,14.3,37.3
		c-4.9,0.1-9.8,0-14.7,0.1c-2.5-7.4-5-14.8-7.5-22.2c-2.5,7.4-4.9,14.7-7.5,22.1c-4.9,0.1-9.8-0.1-14.7,0.1
		C212.2,283.6,216.9,271.3,221.6,259.1z"/>
	<path id="path15" class="st0" d="M248.2,258.4c12,0,24.1,0,36.1,0c0.1,3.6,0,7.2,0.1,10.8c-3.5,0.1-7,0-10.6,0.1
		c0,8.9,0,17.7,0,26.6c-5-0.1-10.1,0-15.1-0.1c0-8.8,0-17.7,0-26.5c-3.5,0-7.1,0-10.6,0C248.3,265.7,248.2,262,248.2,258.4z"/>
	<path id="path17" class="st0" d="M295,258.4c5.3,0,10.5,0,15.8,0c4.8,12.4,9.6,24.9,14.3,37.4c-4.9,0.1-9.8,0-14.6,0.1
		c-2.5-7.3-5-14.7-7.5-21.9c-2.6,7.2-5,14.6-7.5,21.9c-4.9,0.1-9.9-0.1-14.8,0.1C285.4,283.4,290.1,270.9,295,258.4z"/>
	<path id="path19" class="st0" d="M152.6,318.5c3-2,6.9-2,10.2-0.9c-0.1,1-0.4,1.9-0.7,2.8c-2.4-0.7-5.3-1.1-7.5,0.5
		c-2.9,2.2-3.1,6.9-1,9.8c2,2.5,5.7,2.4,8.4,1.4c0.3,0.9,0.5,1.9,0.7,2.8c-2,0.8-4.2,0.6-6.4,0.6c-3.1-0.1-6.1-2.2-7.2-5.2
		C147.8,326.3,148.8,321,152.6,318.5z"/>
	<path id="path21" class="st0" d="M170.3,317.1c2.9-0.7,6.2,0.1,8.2,2.4c2,2.3,2.5,5.5,2.2,8.4c-0.4,2.9-2,5.7-4.7,6.9
		c-1.7,0.7-3.7,1.2-5.5,0.7c-2.4-0.5-4.6-2-5.7-4.2c-1.7-3.6-1.5-8.1,0.9-11.3C166.8,318.6,168.5,317.5,170.3,317.1 M170.7,320
		c-1.8,0.6-2.8,2.4-3.1,4.2c-0.5,2.6-0.2,5.6,1.7,7.6c1.9,1.8,5.4,1.4,6.7-1c1.6-2.7,1.6-6.4,0-9C174.9,320,172.6,319.4,170.7,320z"
		/>
	<path id="path23" class="st0" d="M204.2,317.6c2.5-1.1,5.4-0.8,7.9,0.2c-0.3,1-0.6,1.9-0.8,2.9c-1.7-0.9-3.7-1.3-5.5-0.5
		c-1.2,0.5-1.4,2.4-0.3,3.2c1.9,1.4,4.5,1.7,6.1,3.5c2.1,2.2,1.4,6.1-1.1,7.7c-1.7,1.2-3.9,0.9-5.9,1c-1.3,0.1-2.6-0.4-3.7-1
		c0.2-0.9,0.5-1.9,0.7-2.8c2.1,0.9,4.5,1.6,6.6,0.6c1.6-0.8,1.2-3.3-0.3-3.9c-2.2-1.1-5-1.7-6.3-4.1
		C200.3,321.8,201.7,318.7,204.2,317.6z"/>
	<path id="path25" class="st0" d="M294.4,318.5c3-2,6.9-2,10.2-0.9c-0.2,0.9-0.4,1.9-0.7,2.8c-2.4-0.7-5.3-1.1-7.5,0.5
		c-2.1,1.5-2.6,4.2-2.3,6.6c0.2,2,1.4,4,3.4,4.7c2.1,0.8,4.3,0.5,6.4-0.2c0.2,0.9,0.4,1.9,0.6,2.8c-1.9,0.7-4,0.6-6,0.6
		c-3.1,0.1-6.1-1.9-7.3-4.7C289.5,326.7,290.5,321.1,294.4,318.5z"/>
	<path id="path27" class="st0" d="M331.1,317.4c2.4-0.9,5.1-0.5,7.4,0.4c-0.3,1-0.6,2-0.8,2.9c-1.6-0.8-3.7-1.3-5.4-0.6
		c-1.3,0.6-1.6,2.5-0.4,3.3c2.3,1.5,5.6,1.8,6.9,4.6c1.5,3-0.7,6.8-3.9,7.4c-2.6,0.2-5.3,0.4-7.6-0.9c0.3-1,0.6-1.9,0.8-2.9
		c1.9,0.9,4.3,1.5,6.4,0.7c1.4-0.5,1.7-2.6,0.6-3.6c-1.1-1-2.7-1.3-4-2c-1.6-0.7-3.1-2-3.4-3.8C327.2,320.6,328.9,318.2,331.1,317.4
		z"/>
	<path id="path29" class="st0" d="M396.8,319.1c3-2.5,7.3-2.6,11-1.5c-0.2,1-0.4,2-0.7,2.9c-2.3-0.8-5-1.1-7.1,0.2
		c-3.2,2-3.5,6.7-1.6,9.7c1.9,2.8,5.9,2.7,8.8,1.7c0.2,0.9,0.4,1.8,0.6,2.8c-2,0.9-4.3,0.6-6.4,0.6c-3.3-0.1-6.3-2.6-7.2-5.7
		C392.9,326.1,393.7,321.6,396.8,319.1z"/>
	<path id="path31" class="st0" d="M426.5,317.7c2.5-1.2,5.5-0.9,8,0.1c-0.3,1-0.6,2-0.8,3c-1.7-0.9-3.7-1.3-5.5-0.6
		c-1.2,0.5-1.5,2.5-0.4,3.3c2,1.4,4.7,1.7,6.3,3.7c1,1,0.8,2.5,0.8,3.7c0.1,1.7-1.1,3.1-2.5,3.9c-1.6,1-3.6,0.7-5.4,0.7
		c-1.3,0.1-2.6-0.4-3.8-1c0.2-0.9,0.5-1.9,0.7-2.8c2,0.8,4.4,1.5,6.5,0.7c1.5-0.7,1.6-3.1,0.1-3.9c-2.2-1.3-5-1.7-6.4-4
		C422.6,322.1,424,318.8,426.5,317.7z"/>
	<path id="path33" class="st0" d="M65.1,317c6,0,12.1,0,18.1,0c0,1.8,0,3.6,0,5.4c-1.8,0.1-3.5,0.1-5.3,0.1c0,4.4,0,8.9,0,13.3
		c-2.5-0.2-5.1-0.1-7.6-0.1c0.1-4.4,0-8.9,0.1-13.3c-1.8,0.1-3.5,0.1-5.3,0.1v-0.7C65.1,320.2,65.1,318.6,65.1,317z"/>
	<path id="path35" class="st0" d="M81.1,335.7c2.4-6.2,4.7-12.5,7.2-18.7c2.6,0,5.2,0,7.8,0c2.5,6.2,4.8,12.4,7.1,18.7
		c-2.5,0-4.9-0.1-7.3,0.1c-1.2-3.7-2.6-7.4-3.7-11.2c-1.2,3.7-2.4,7.4-3.7,11C86.1,335.9,83.6,335.7,81.1,335.7z"/>
	<path id="path37" class="st0" d="M101.4,317.1c6-0.1,12.1,0,18.1,0c0,1.8,0,3.6,0,5.4c-1.8,0.1-3.5,0.1-5.3,0.1c0,4.3,0,8.6,0,13
		c-2.5,0-5,0-7.5,0c0-4.3-0.1-8.7,0-13c-1.8,0-3.6,0-5.3,0.1C101.4,320.7,101.4,318.9,101.4,317.1z"/>
	<path id="path39" class="st0" d="M117.6,335.5c2.3-6.2,4.7-12.3,7-18.5c2.6,0,5.3-0.1,7.9,0.1c2.4,6.1,4.8,12.3,7,18.4
		c-2.5,0-4.9,0-7.4,0c-1.2-3.5-2.4-7.1-3.7-10.6c-1.2,3.5-2.4,7.1-3.6,10.6C122.5,335.5,120.1,335.5,117.6,335.5z"/>
	<path id="path41" class="st0" d="M183.5,317.2c1.3-0.1,2.6-0.1,3.9,0c2.6,4.4,5.4,8.6,7.6,13.3c-0.3-4.4-0.2-8.9-0.2-13.3
		c1.1,0,2.1,0,3.2,0c0.2,6.1,0,12.1,0.1,18.2c-1.2,0-2.4,0-3.6,0c-2.6-4.8-5.8-9.3-7.9-14.3c0.3,4.8,0.2,9.5,0.2,14.3
		c-1.1,0-2.1,0-3.2,0C183.5,329.4,183.5,323.3,183.5,317.2z"/>
	<path id="path43" class="st0" d="M215.6,317.2c1.1,0,2.3,0,3.4,0c0.2,3.8,0,7.6,0.1,11.5c0.1,1.4,0.5,3,1.8,3.8
		c1.4,0.8,3.3,0.6,4.4-0.5c1-1.2,1.1-2.8,1.2-4.3c0-3.4,0-6.9,0-10.3c1.2,0,2.3-0.1,3.5,0c0,3.6,0,7.1,0,10.7c0,2.4-0.8,5.1-2.8,6.6
		c-2.6,1.7-6.2,1.8-8.8,0.1c-2-1.4-2.6-4-2.7-6.3C215.5,324.6,215.5,320.9,215.6,317.2z"/>
	<path id="path45" class="st0" d="M233.4,317.2c1.2-0.1,2.3-0.1,3.5,0c0,5.1,0,10.2,0,15.3c2.5,0,4.9,0,7.4,0c0,1,0.1,1.9,0.1,2.9
		c-3.7,0.2-7.3,0-11,0.1C233.5,329.4,233.4,323.3,233.4,317.2z"/>
	<path id="path47" class="st0" d="M242.3,317.3c4.6-0.1,9.3-0.1,13.9-0.1c0,1,0,2,0,3c-1.8-0.1-3.5,0-5.2-0.1c0.1,5.1,0,10.2,0,15.2
		c-1.2,0.1-2.4,0.1-3.6,0.1c0.2-5.1,0-10.2,0.1-15.3c-1.7,0-3.4,0-5.2,0C242.3,319.2,242.3,318.2,242.3,317.3z"/>
	<path id="path49" class="st0" d="M260.7,317.3c1.5-0.2,2.9-0.1,4.4,0c1.9,6.1,4,12.1,5.9,18.2c-1.3,0-2.5,0-3.7,0
		c-0.5-1.7-1.1-3.4-1.6-5.2c-1.9,0.1-3.7,0.1-5.6,0c-0.5,1.7-1,3.4-1.5,5.1c-1.2,0-2.5,0.1-3.7,0.1
		C256.8,329.5,258.6,323.3,260.7,317.3 M260.6,327.7c1.4,0,2.9,0,4.3,0c-0.7-2.5-1.6-4.9-2.2-7.4
		C262.1,322.8,261.3,325.2,260.6,327.7z"/>
	<path id="path51" class="st0" d="M273.2,317.2c1.3,0,2.6-0.2,3.8,0c2.8,4.4,5.6,8.7,7.7,13.4c-0.4-4.5-0.3-9-0.3-13.5
		c1.1,0,2.1,0,3.2,0c0.2,6.1,0,12.1,0.1,18.2c-1.2,0.1-2.4,0.1-3.6,0.1c-2.7-4.6-5.6-9.1-7.9-13.9c0.2,4.6,0.2,9.3,0.2,13.9
		c-1.1,0-2.2,0-3.2,0C273.3,329.4,273.2,323.3,273.2,317.2z"/>
	<path id="path53" class="st0" d="M305.6,317.2c1.3,0,2.5,0,3.8,0c1.4,2.6,2.5,5.3,3.7,8c1.3-2.6,2.4-5.3,3.8-7.9
		c1.3-0.1,2.5-0.1,3.8,0c-1.7,3.4-3.8,6.5-5.5,9.8c-0.4,0.7-0.4,1.5-0.4,2.3c0,2,0,4.1,0,6.1c-1.2,0-2.4,0-3.6,0
		c0.1-2.6,0.2-5.2,0-7.8C309.4,324.1,307.3,320.8,305.6,317.2z"/>
	<path id="path55" class="st0" d="M342.1,317.2c3.5,0,7.1,0,10.6,0c0.1,1,0.1,2,0.1,3c-2.4-0.2-4.9-0.1-7.3-0.1c0,1.5,0,3,0,4.4
		c2.3,0,4.5,0,6.8,0c0,1,0,2,0,3c-2.3-0.2-4.6-0.1-6.8-0.1c0,1.7,0,3.4,0,5.1c2.5,0.1,5,0.1,7.5,0c0.1,0.9,0.1,1.9,0.1,2.8
		c-3.7,0.2-7.5,0-11.2,0.1C342.1,329.4,342,323.3,342.1,317.2z"/>
	<path id="path57" class="st0" d="M355.9,317.5c2.2-0.4,4.5-0.5,6.8-0.3c2.1,0.1,4.5,1.1,5.3,3.3c1,2.5-0.4,5.5-3,6.4
		c1,0.5,1.7,1.3,2.1,2.3c0.8,2.1,1,4.3,1.9,6.3c-1.2,0-2.4,0-3.6,0c-0.8-2-1-4.1-1.8-6.1c-0.7-1.6-2.8-1.3-4.2-1.4
		c0.1,2.5,0,5,0.1,7.4c-1.2,0-2.4,0-3.6,0.1C356,329.5,355.8,323.5,355.9,317.5 M359.3,319.8c0.1,1.9,0,3.7,0.1,5.6
		c1.4,0,3,0.2,4.3-0.6c1.6-1,1.5-3.8-0.2-4.6C362.1,319.6,360.6,319.8,359.3,319.8z"/>
	<path id="path59" class="st0" d="M369.5,317.2c1.3,0,2.5,0,3.8,0c1.4,4.8,3,9.6,4.2,14.5c1.2-4.9,2.9-9.7,4.5-14.5
		c1.2,0,2.4,0,3.6,0c-2,6.1-4.2,12.1-6.2,18.2c-1.4,0-2.7,0.1-4.1,0.1C373.6,329.3,371.4,323.3,369.5,317.2z"/>
	<path id="path61" class="st0" d="M387.4,317.2c1.2,0,2.3-0.1,3.5,0c0,6.1,0,12.2,0,18.3c-1.2,0-2.3,0-3.5,0
		C387.4,329.4,387.4,323.3,387.4,317.2z"/>
	<path id="path63" class="st0" d="M410.2,317.3c3.5-0.2,7.1-0.1,10.6-0.1c0.1,1,0.1,2,0.2,3c-2.4-0.2-4.9,0-7.3-0.1c0,1.5,0,3,0,4.5
		c2.3,0,4.5,0,6.8,0c0,1,0,2,0,3c-2.3-0.2-4.6-0.1-6.8-0.1c0,1.7,0,3.4,0,5.1c2.5,0.1,5,0,7.6,0c0,0.9,0.1,1.9,0.1,2.9
		c-3.7,0.1-7.5,0-11.2,0.1C410.2,329.4,410.2,323.3,410.2,317.3z"/>
</g>
</svg>
